<?xml version="1.0" encoding="UTF-8"?>
<svg version="1.1" viewBox="0 0 24 24" xmlns="http://www.w3.org/2000/svg" xmlns:xlink="http://www.w3.org/1999/xlink">
    <!--Generated by IJSVG (https://github.com/curthard89/IJSVG)-->
    <g fill="#4079c1">
        <path d="M8.195,4.856c0.098,0.097 0.226,0.146 0.354,0.146c0.128,0 0.256,-0.049 0.354,-0.146c0.195,-0.195 0.195,-0.512 0,-0.707l-3.845,-3.845c-0.077,-0.178 -0.253,-0.302 -0.459,-0.302c-0.009,-1.73472e-18 -0.016,0.005 -0.025,0.005c-0.136,-0.007 -0.275,0.037 -0.379,0.141l-4,4c-0.195,0.195 -0.195,0.512 0,0.707c0.195,0.195 0.512,0.195 0.707,0l3.197,-3.197v21.844c0,0.276 0.224,0.5 0.5,0.5c0.276,0 0.5,-0.224 0.5,-0.5v-21.743l3.096,3.097Z" transform="translate(6.951, -0.002)"></path>
        <path d="M5.057,0.303c-0.076,-0.177 -0.252,-0.301 -0.458,-0.301c-0.008,0 -0.016,0.005 -0.024,0.005c-0.137,-0.007 -0.275,0.037 -0.38,0.141l-4,4c-0.195,0.195 -0.195,0.512 -2.77556e-16,0.707c0.195,0.195 0.512,0.195 0.707,0l3.197,-3.196v13.843c0,0.276 0.224,0.5 0.5,0.5c0.276,0 0.5,-0.224 0.5,-0.5v-13.743l3.096,3.096c0.098,0.098 0.226,0.147 0.354,0.147c0.128,0 0.256,-0.049 0.354,-0.146c0.195,-0.195 0.195,-0.512 0,-0.707l-3.846,-3.846Z" transform="translate(-0.049, 7.998)"></path>
        <path d="M5.057,0.303c-0.076,-0.177 -0.252,-0.301 -0.458,-0.301c-0.009,0 -0.016,0.005 -0.025,0.005c-0.136,-0.007 -0.275,0.037 -0.379,0.141l-4,4c-0.195,0.195 -0.195,0.512 0,0.707c0.195,0.195 0.512,0.195 0.707,0l3.197,-3.197v13.844c0,0.276 0.224,0.5 0.5,0.5c0.276,0 0.5,-0.224 0.5,-0.5v-13.743l3.096,3.096c0.098,0.098 0.226,0.147 0.354,0.147c0.128,0 0.256,-0.049 0.354,-0.146c0.195,-0.195 0.195,-0.512 0,-0.707l-3.846,-3.846Z" transform="translate(14.951, 7.998)"></path>
    </g>
</svg>