<?xml version="1.0" encoding="UTF-8"?>
<svg version="1.1" viewBox="0 0 24 24" xmlns="http://www.w3.org/2000/svg" xmlns:xlink="http://www.w3.org/1999/xlink">
    <!--Generated by IJSVG (https://github.com/curthard89/IJSVG)-->
    <g fill="#5B5B5B">
        <path d="M4,2c0,-1.103 -0.897,-2 -2,-2c-1.103,0 -2,0.897 -2,2c0,1.103 0.897,2 2,2c1.103,0 2,-0.897 2,-2Zm-3,0c0,-0.551 0.448,-1 1,-1c0.552,0 1,0.449 1,1c0,0.551 -0.448,1 -1,1c-0.552,0 -1,-0.449 -1,-1Z" transform="translate(10, 6)"></path>
        <path d="M0.09,16.751c0.09,0.154 0.254,0.249 0.433,0.249h22.96c0.179,0 0.343,-0.095 0.433,-0.249c0.089,-0.154 0.09,-0.344 0.002,-0.499l-4,-7c-0.09,-0.156 -0.255,-0.252 -0.435,-0.252h-3.95c0.815,-1.476 1.47,-2.976 1.47,-4c0,-2.757 -2.243,-5 -5,-5c-2.757,0 -5,2.243 -5,5c0,1.024 0.655,2.524 1.47,4h-3.95c-0.18,0 -0.345,0.096 -0.435,0.252l-4,7c-0.088,0.155 -0.087,0.345 0.002,0.499Zm11.913,-15.751c2.206,0 4,1.794 4,4c0,1.719 -2.598,5.697 -4,7.653c-1.402,-1.956 -4,-5.934 -4,-7.653c0,-2.206 1.794,-4 4,-4Zm-7.19,9h4.237c1.114,1.853 2.312,3.477 2.553,3.799c0.094,0.127 0.243,0.201 0.4,0.201c0.157,0 0.306,-0.074 0.4,-0.201c0.241,-0.322 1.44,-1.946 2.553,-3.799h4.237l3.429,6h-21.238l3.429,-6Z" transform="translate(-0.003, 3)"></path>
    </g>
</svg>