<?xml version="1.0" encoding="utf-8"?>
<!-- Generator: Adobe Illustrator 18.0.0, SVG Export Plug-In . SVG Version: 6.00 Build 0)  -->
<!DOCTYPE svg PUBLIC "-//W3C//DTD SVG 1.1//EN" "http://www.w3.org/Graphics/SVG/1.1/DTD/svg11.dtd" [
	<!ENTITY ns_extend "http://ns.adobe.com/Extensibility/1.0/">
	<!ENTITY ns_ai "http://ns.adobe.com/AdobeIllustrator/10.0/">
	<!ENTITY ns_graphs "http://ns.adobe.com/Graphs/1.0/">
	<!ENTITY ns_vars "http://ns.adobe.com/Variables/1.0/">
	<!ENTITY ns_imrep "http://ns.adobe.com/ImageReplacement/1.0/">
	<!ENTITY ns_sfw "http://ns.adobe.com/SaveForWeb/1.0/">
	<!ENTITY ns_custom "http://ns.adobe.com/GenericCustomNamespace/1.0/">
	<!ENTITY ns_adobe_xpath "http://ns.adobe.com/XPath/1.0/">
]>
<svg version="1.1" xmlns:x="&ns_extend;" xmlns:i="&ns_ai;" xmlns:graph="&ns_graphs;"
	 xmlns="http://www.w3.org/2000/svg" xmlns:xlink="http://www.w3.org/1999/xlink" x="0px" y="0px" viewBox="0 0 24 24"
	 enable-background="new 0 0 24 24" xml:space="preserve">
<metadata>
	<sfw  xmlns="&ns_sfw;">
		<slices></slices>
		<sliceSourceBounds  height="319.044" width="461.741" x="0" y="-309" bottomLeftOrigin="true"></sliceSourceBounds>
		<optimizationSettings>
			<targetSettings  fileFormat="PNG24Format" targetSettingsID="0">
				<PNG24Format  transparency="true" noMatteColor="false" interlaced="false" filtered="false" matteColor="#FFFFFF">
					</PNG24Format>
			</targetSettings>
		</optimizationSettings>
	</sfw>
</metadata>
<g id="icons">
	<path fill="#4079c1" d="M5,8.051c-2.757,0-5,2.243-5,5c0,2.577,4.129,8.17,4.6,8.8c0.095,0.126,0.243,0.2,0.4,0.2
		s0.306-0.074,0.4-0.2c0.471-0.63,4.6-6.223,4.6-8.8C10,10.294,7.757,8.051,5,8.051z M5,20.704c-1.402-1.956-4-5.934-4-7.653
		c0-2.206,1.794-4,4-4s4,1.794,4,4C9,14.771,6.402,18.748,5,20.704z"/>
	<path fill="#4079c1" d="M5,11.051c-1.103,0-2,0.897-2,2s0.897,2,2,2s2-0.897,2-2S6.103,11.051,5,11.051z M5,14.051
		c-0.552,0-1-0.448-1-1s0.448-1,1-1s1,0.448,1,1S5.552,14.051,5,14.051z"/>
	<path fill="#4079c1" d="M19.5,1.051c-2.481,0-4.5,2.088-4.5,4.654c0,2.387,3.675,7.557,4.095,8.138
		c0.094,0.131,0.244,0.208,0.405,0.208s0.312-0.077,0.405-0.208C20.325,13.262,24,8.092,24,5.705C24,3.139,21.981,1.051,19.5,1.051z
		 M19.5,12.681C18.244,10.854,16,7.266,16,5.705c0-2.015,1.57-3.654,3.5-3.654S23,3.69,23,5.705C23,7.265,20.755,10.854,19.5,12.681
		z"/>
	<path fill="#4079c1" d="M19.5,4.051c-0.827,0-1.5,0.673-1.5,1.5s0.673,1.5,1.5,1.5s1.5-0.673,1.5-1.5S20.327,4.051,19.5,4.051z
		 M19.5,6.051c-0.275,0-0.5-0.225-0.5-0.5s0.225-0.5,0.5-0.5s0.5,0.225,0.5,0.5S19.775,6.051,19.5,6.051z"/>
	<path fill="#4079c1" d="M6.829,22.129c-0.139-0.08-0.276-0.165-0.413-0.251c-0.231-0.146-0.541-0.08-0.689,0.154
		c-0.148,0.232-0.079,0.542,0.154,0.689c0.146,0.094,0.296,0.185,0.446,0.272c0.079,0.046,0.165,0.067,0.251,0.067
		c0.172,0,0.34-0.089,0.433-0.249C7.149,22.574,7.068,22.268,6.829,22.129z"/>
	<path fill="#4079c1" d="M20.5,18.979c-0.07-0.01-0.141-0.02-0.21-0.029c-0.221-0.021-0.45-0.061-0.69-0.101l-0.06-0.01
		c-0.29-0.06-0.54,0.13-0.58,0.4c-0.01,0.029-0.01,0.05-0.01,0.079c-0.011,0.24,0.17,0.461,0.42,0.5l0.04,0.011
		c0.239,0.04,0.489,0.08,0.75,0.12c0.09,0.01,0.18,0.02,0.26,0.02c0.02,0,0.03,0,0.04,0c0.26,0,0.479-0.2,0.5-0.46
		c0.01-0.13-0.03-0.26-0.12-0.36C20.75,19.05,20.63,18.979,20.5,18.979z"/>
	<path fill="#4079c1" d="M23.689,15.87c-0.109-0.23-0.239-0.44-0.39-0.63c-0.17-0.221-0.49-0.261-0.7-0.101
		c-0.109,0.08-0.18,0.2-0.2,0.33c-0.01,0.14,0.021,0.271,0.101,0.37c0.12,0.16,0.21,0.31,0.29,0.47c0.04,0.09,0.08,0.181,0.12,0.28
		c0.069,0.21,0.26,0.35,0.47,0.35c0.06,0,0.11-0.01,0.16-0.029c0.21-0.07,0.35-0.261,0.34-0.48c0-0.05-0.01-0.1-0.021-0.149
		C23.8,16.12,23.75,15.99,23.689,15.87z"/>
	<path fill="#4079c1" d="M9.47,23c-0.1-0.01-0.2-0.01-0.3-0.021c-0.22-0.02-0.41-0.06-0.601-0.109c-0.26-0.061-0.539,0.109-0.6,0.37
		c-0.04,0.13-0.02,0.27,0.05,0.38C8.09,23.729,8.2,23.81,8.33,23.85c0.01,0,0.01,0,0.01,0h0.01c0.24,0.061,0.48,0.101,0.72,0.12
		C9.18,23.99,9.31,23.99,9.45,24h0.01c0.27,0,0.5-0.22,0.5-0.49C9.97,23.229,9.75,23,9.47,23z"/>
	<path fill="#4079c1" d="M14.439,20.35c-0.109,0.09-0.22,0.19-0.33,0.28l-0.13,0.11c-0.109,0.09-0.21,0.18-0.319,0.27
		c-0.11,0.1-0.181,0.24-0.181,0.39c0,0.12,0.04,0.23,0.12,0.32c0.09,0.11,0.23,0.18,0.38,0.18c0.12,0,0.23-0.04,0.311-0.109
		c0.01-0.01,0.01-0.01,0.01-0.01c0.16-0.131,0.31-0.261,0.45-0.381l0.08-0.069c0.08-0.07,0.17-0.141,0.25-0.21
		c0.21-0.17,0.239-0.49,0.069-0.7S14.649,20.18,14.439,20.35z"/>
	<path fill="#4079c1" d="M12.09,22.2c-0.31,0.18-0.58,0.33-0.84,0.439c-0.19,0.08-0.3,0.26-0.3,0.46c0,0.07,0.01,0.13,0.04,0.2
		c0.079,0.18,0.26,0.3,0.46,0.3c0.069,0,0.13-0.02,0.189-0.04c0.32-0.14,0.641-0.3,0.97-0.51c0.24-0.15,0.311-0.46,0.16-0.69
		C12.63,22.13,12.31,22.06,12.09,22.2z"/>
	<path fill="#4079c1" d="M23.45,17.979c-0.221-0.149-0.54-0.08-0.69,0.141c-0.14,0.22-0.32,0.39-0.56,0.529c0,0-0.011,0-0.011,0.011
		c-0.149,0.08-0.25,0.239-0.25,0.42c0,0.09,0.021,0.18,0.061,0.26c0.09,0.15,0.26,0.25,0.439,0.25c0.08,0,0.16-0.021,0.24-0.06
		c0-0.011,0-0.011,0.01-0.011c0.37-0.21,0.681-0.5,0.91-0.85C23.75,18.439,23.68,18.13,23.45,17.979z"/>
	<path fill="#4079c1" d="M17.319,18.79c-0.359,0.08-0.72,0.2-1.069,0.37c-0.181,0.08-0.29,0.25-0.29,0.449
		c0,0.07,0.02,0.15,0.05,0.221c0.08,0.17,0.26,0.279,0.45,0.279c0.07,0,0.149-0.01,0.22-0.05c0.29-0.14,0.58-0.24,0.851-0.29
		c0.27-0.06,0.439-0.33,0.38-0.6C17.85,18.899,17.59,18.729,17.319,18.79z"/>
	<path fill="#4079c1" d="M21.759,14.11c-0.018-0.045-0.038-0.083-0.068-0.121c-0.027-0.038-0.062-0.069-0.1-0.099
		c-0.016-0.012-0.024-0.032-0.042-0.042c-0.01,0-0.02-0.01-0.02-0.01l-0.009-0.004c-0.002-0.001-0.003-0.003-0.006-0.005
		c-0.156-0.079-0.316-0.154-0.478-0.225c-0.251-0.109-0.548,0.005-0.658,0.258c-0.11,0.254,0.005,0.548,0.258,0.658
		c0.141,0.062,0.281,0.128,0.42,0.198c0.005,0.003,0.007,0.007,0.012,0.009l0.002-0.004c0.003,0.001,0.006,0.001,0.009,0.002
		l0,0.002c0.069,0.04,0.149,0.061,0.229,0.061c0.19,0,0.36-0.11,0.44-0.271c0.04-0.069,0.06-0.149,0.06-0.22
		c0-0.056-0.025-0.104-0.041-0.155C21.765,14.133,21.763,14.122,21.759,14.11z"/>
</g>
<g id="nyt_x5F_exporter_x5F_info" display="none">
</g>
</svg>
