<?xml version="1.0" encoding="UTF-8"?>
<svg version="1.1" viewBox="0 0 24 24" xmlns="http://www.w3.org/2000/svg" xmlns:xlink="http://www.w3.org/1999/xlink">
    <!--Generated by IJSVG (https://github.com/curthard89/IJSVG)-->
    <g fill="#5B5B5B">
        <path d="M5.712,19.952l0.832,1.847c0.081,0.18 0.259,0.295 0.456,0.295c0.197,0 0.375,-0.115 0.456,-0.295l0.832,-1.847c1.541,-3.419 3.104,-6.487 4.778,-9.378c0.611,-1.055 0.934,-2.258 0.934,-3.48c0,-3.069 -2.054,-5.826 -4.995,-6.706v0.001c-0.012,-0.004 -0.024,-0.008 -0.037,-0.011c-1.283,-0.375 -2.627,-0.378 -3.909,-0.008c-0.038,0.006 -0.074,0.017 -0.109,0.032c-2.917,0.894 -4.95,3.639 -4.95,6.692c0,1.222 0.323,2.425 0.934,3.48c1.674,2.891 3.237,5.959 4.778,9.378Zm-0.441,-18.602c0.008,-0.002 0.017,-0.005 0.024,-0.007c1.119,-0.33 2.29,-0.33 3.409,0c0.007,0.002 0.014,0.004 0.021,0.006c2.518,0.756 4.275,3.117 4.275,5.745c0,1.046 -0.276,2.076 -0.799,2.979c-1.691,2.922 -3.27,6.019 -4.825,9.47l-0.376,0.834l-0.376,-0.835c-1.555,-3.451 -3.133,-6.548 -4.825,-9.47c-0.523,-0.902 -0.799,-1.932 -0.799,-2.978c0,-2.627 1.756,-4.987 4.271,-5.744Z" transform="translate(5, -0.094)"></path>
        <path d="M7,5.75c3.394,0 7,-1.052 7,-3c0,-1.193 -1.441,-2.2 -3.855,-2.694c-0.27,-0.056 -0.535,0.119 -0.59,0.39c-0.056,0.271 0.119,0.535 0.39,0.591c2.099,0.428 3.055,1.189 3.055,1.713c0,0.835 -2.283,2 -6,2c-3.717,0 -6,-1.165 -6,-2c0,-0.524 0.956,-1.285 3.056,-1.714c0.271,-0.056 0.445,-0.32 0.39,-0.591c-0.055,-0.271 -0.32,-0.445 -0.59,-0.39c-2.415,0.495 -3.856,1.502 -3.856,2.695c0,1.948 3.606,3 7,3Z" transform="translate(5, 18.25)"></path>
        <path d="M4,8c2.206,0 4,-1.794 4,-4c0,-2.206 -1.794,-4 -4,-4c-2.206,0 -4,1.794 -4,4c0,2.206 1.794,4 4,4Zm0,-7c1.654,0 3,1.346 3,3c0,1.654 -1.346,3 -3,3c-1.654,0 -3,-1.346 -3,-3c0,-1.654 1.346,-3 3,-3Z" transform="translate(8, 3)"></path>
    </g>
</svg>