<?xml version="1.0" encoding="UTF-8"?>
<svg version="1.1" viewBox="0 0 24 24" xmlns="http://www.w3.org/2000/svg" xmlns:xlink="http://www.w3.org/1999/xlink">
    <!--Generated by IJSVG (https://github.com/curthard89/IJSVG)-->
    <path fill="#4079c1" d="M22,11c-0.91,0 -1.671,0.615 -1.913,1.448l-4.09,-0.477c-0.009,-1.271 -0.622,-2.39 -1.556,-3.117l2.272,-3.993c0.249,0.083 0.51,0.139 0.787,0.139c1.379,0 2.5,-1.121 2.5,-2.5c0,-1.379 -1.121,-2.5 -2.5,-2.5c-1.379,0 -2.5,1.121 -2.5,2.5c0,0.742 0.331,1.403 0.847,1.861l-2.259,3.971c-0.488,-0.212 -1.024,-0.332 -1.588,-0.332c-1.169,0 -2.212,0.513 -2.944,1.314l-3.46,-2.839c0.25,-0.437 0.404,-0.936 0.404,-1.475c0,-1.654 -1.346,-3 -3,-3c-1.654,0 -3,1.346 -3,3c0,1.654 1.346,3 3,3c0.754,0 1.436,-0.289 1.963,-0.75l3.518,2.887c-0.297,0.559 -0.481,1.187 -0.481,1.863c0,0.768 0.228,1.479 0.604,2.088l-4.486,3.522c-0.437,-0.375 -0.998,-0.61 -1.618,-0.61c-1.379,0 -2.5,1.121 -2.5,2.5c0,1.379 1.121,2.5 2.5,2.5c1.379,0 2.5,-1.121 2.5,-2.5c0,-0.397 -0.101,-0.768 -0.267,-1.101l4.493,-3.527c0.72,0.695 1.696,1.128 2.774,1.128c0.565,0 1.1,-0.12 1.588,-0.332l2.885,5.056c-0.291,0.347 -0.473,0.789 -0.473,1.276c0,1.103 0.897,2 2,2c1.103,0 2,-0.897 2,-2c0,-1.103 -0.897,-2 -2,-2c-0.251,0 -0.488,0.052 -0.71,0.136l-2.848,-4.991c0.696,-0.542 1.207,-1.3 1.427,-2.182l4.187,0.488c0.206,0.886 0.997,1.549 1.944,1.549c1.103,0 2,-0.897 2,-2c0,-1.103 -0.897,-2 -2,-2Zm-4.5,-10c0.827,0 1.5,0.673 1.5,1.5c0,0.827 -0.673,1.5 -1.5,1.5c-0.275,0 -0.529,-0.08 -0.751,-0.209c-0.001,0 -0.001,-0.001 -0.002,-0.002c-0.001,-0.001 -0.002,0 -0.003,-0.001c-0.443,-0.261 -0.744,-0.738 -0.744,-1.288c0,-0.827 0.673,-1.5 1.5,-1.5Zm-14.5,6c-1.103,0 -2,-0.897 -2,-2c0,-1.103 0.897,-2 2,-2c1.103,0 2,0.897 2,2c0,1.103 -0.897,2 -2,2Zm16,15c0,0.552 -0.448,1 -1,1c-0.552,0 -1,-0.448 -1,-1c0,-0.552 0.448,-1 1,-1c0.552,0 1,0.448 1,1Zm-16.5,-1c-0.827,0 -1.5,-0.673 -1.5,-1.5c0,-0.827 0.673,-1.5 1.5,-1.5c0.827,0 1.5,0.673 1.5,1.5c0,0.827 -0.673,1.5 -1.5,1.5Zm9.5,-6c-1.654,0 -3,-1.346 -3,-3c0,-1.654 1.346,-3 3,-3c1.654,0 3,1.346 3,3c0,1.654 -1.346,3 -3,3Zm10,-1c-0.552,0 -1,-0.448 -1,-1c0,-0.552 0.448,-1 1,-1c0.552,0 1,0.448 1,1c0,0.552 -0.448,1 -1,1Z"></path>
</svg>
