<?xml version="1.0" encoding="utf-8"?>
<!-- Generator: Adobe Illustrator 18.0.0, SVG Export Plug-In . SVG Version: 6.00 Build 0)  -->
<!DOCTYPE svg PUBLIC "-//W3C//DTD SVG 1.1//EN" "http://www.w3.org/Graphics/SVG/1.1/DTD/svg11.dtd" [
	<!ENTITY ns_extend "http://ns.adobe.com/Extensibility/1.0/">
	<!ENTITY ns_ai "http://ns.adobe.com/AdobeIllustrator/10.0/">
	<!ENTITY ns_graphs "http://ns.adobe.com/Graphs/1.0/">
	<!ENTITY ns_vars "http://ns.adobe.com/Variables/1.0/">
	<!ENTITY ns_imrep "http://ns.adobe.com/ImageReplacement/1.0/">
	<!ENTITY ns_sfw "http://ns.adobe.com/SaveForWeb/1.0/">
	<!ENTITY ns_custom "http://ns.adobe.com/GenericCustomNamespace/1.0/">
	<!ENTITY ns_adobe_xpath "http://ns.adobe.com/XPath/1.0/">
]>
<svg version="1.1" id="icons" xmlns:x="&ns_extend;" xmlns:i="&ns_ai;" xmlns:graph="&ns_graphs;"
	 xmlns="http://www.w3.org/2000/svg" xmlns:xlink="http://www.w3.org/1999/xlink" x="0px" y="0px" viewBox="0 0 24 24"
	 enable-background="new 0 0 24 24" xml:space="preserve">
<metadata>
	<sfw  xmlns="&ns_sfw;">
		<slices></slices>
		<sliceSourceBounds  height="508" width="332" x="21" y="-441" bottomLeftOrigin="true"></sliceSourceBounds>
		<optimizationSettings>
			<targetSettings  fileFormat="PNG24Format" targetSettingsID="0">
				<PNG24Format  transparency="true" filtered="false" noMatteColor="false" matteColor="#FFFFFF" interlaced="false">
					</PNG24Format>
			</targetSettings>
		</optimizationSettings>
	</sfw>
</metadata>
<path fill="#4079c1" d="M16.5,0h-2C13.673,0,13,0.673,13,1.5v1.664c-0.492,0.247-0.833,0.75-0.833,1.336v1.862
	C6.743,8.788,3.208,14.067,3.019,20H1.5C1.224,20,1,20.224,1,20.5v3C1,23.776,1.224,24,1.5,24h21c0.276,0,0.5-0.224,0.5-0.5v-3
	c0-0.276-0.224-0.5-0.5-0.5H6.017c0.167-4.29,2.469-8.128,6.15-10.27v1.77c0,0.827,0.673,1.5,1.5,1.5H14v1.5
	c0,0.276,0.224,0.5,0.5,0.5h2c0.276,0,0.5-0.224,0.5-0.5V13h0.5c0.827,0,1.5-0.673,1.5-1.5v-7c0-0.651-0.419-1.201-1-1.408V1.5
	C18,0.673,17.327,0,16.5,0z M14.5,1h2C16.775,1,17,1.225,17,1.5V3h-3V1.5C14,1.225,14.225,1,14.5,1z M22,23H2v-2h20V23z M5.017,20
	H4.019c0.184-5.388,3.315-10.192,8.148-12.535v1.129C7.888,10.85,5.192,15.158,5.017,20z M16,14h-1v-1h1V14z M18,11.5
	c0,0.275-0.225,0.5-0.5,0.5h-1h-2h-0.833c-0.275,0-0.5-0.225-0.5-0.5V8.872c0-0.007,0.001-0.013,0-0.02V6.697
	c0-0.011,0-0.021,0-0.032V4.5c0-0.275,0.225-0.5,0.5-0.5H17.5C17.775,4,18,4.225,18,4.5V11.5z"/>
</svg>
