<?xml version="1.0" encoding="UTF-8"?>
<svg version="1.1" viewBox="0 0 24 24" xmlns="http://www.w3.org/2000/svg" xmlns:xlink="http://www.w3.org/1999/xlink">
    <!--Generated by IJSVG (https://github.com/curthard89/IJSVG)-->
    <g fill="#4079c1">
        <path d="M6.5,0c-3.584,0 -6.5,2.916 -6.5,6.5c0,3.584 2.916,6.5 6.5,6.5c3.584,0 6.5,-2.916 6.5,-6.5c0,-3.584 -2.916,-6.5 -6.5,-6.5Zm0,12c-3.032,0 -5.5,-2.468 -5.5,-5.5c0,-3.032 2.468,-5.5 5.5,-5.5c3.032,0 5.5,2.468 5.5,5.5c0,3.032 -2.468,5.5 -5.5,5.5Z" transform="translate(11, 1)"></path>
        <path d="M4.444,4.658c-0.182,-0.205 -0.392,-0.365 -0.623,-0.476c-0.249,-0.12 -0.513,-0.182 -0.788,-0.182h-0.033v-2.333h0.033c0.121,0 0.24,0.027 0.352,0.081c0.115,0.056 0.219,0.136 0.309,0.238c0.095,0.107 0.17,0.234 0.224,0.377c0.097,0.258 0.383,0.387 0.645,0.291c0.258,-0.098 0.389,-0.386 0.291,-0.645c-0.097,-0.255 -0.233,-0.485 -0.407,-0.684c-0.179,-0.203 -0.389,-0.364 -0.626,-0.479c-0.249,-0.12 -0.514,-0.181 -0.786,-0.181h-0.035v-0.165c0,-0.276 -0.224,-0.5 -0.5,-0.5c-0.276,0 -0.5,0.224 -0.5,0.5v0.167h-0.033c-0.272,0 -0.537,0.061 -0.787,0.181c-0.236,0.114 -0.446,0.275 -0.625,0.479c-0.176,0.201 -0.313,0.432 -0.408,0.686c-0.097,0.26 -0.147,0.537 -0.147,0.82c0,0.284 0.05,0.561 0.146,0.822c0.095,0.254 0.232,0.484 0.409,0.687c0.182,0.205 0.392,0.365 0.623,0.476c0.25,0.12 0.514,0.182 0.789,0.182h0.033v2.333h-0.033c-0.121,0 -0.24,-0.027 -0.352,-0.081c-0.115,-0.056 -0.219,-0.136 -0.309,-0.238c-0.096,-0.108 -0.171,-0.235 -0.223,-0.375c-0.097,-0.258 -0.383,-0.391 -0.644,-0.294c-0.259,0.097 -0.391,0.385 -0.294,0.644c0.095,0.254 0.232,0.484 0.408,0.686c0.179,0.203 0.389,0.364 0.626,0.479c0.249,0.12 0.514,0.181 0.786,0.181h0.035v0.165c0,0.276 0.224,0.5 0.5,0.5c0.276,0 0.5,-0.224 0.5,-0.5v-0.167h0.033c0.272,0 0.537,-0.061 0.787,-0.181c0.236,-0.114 0.446,-0.275 0.625,-0.479c0.174,-0.198 0.311,-0.429 0.408,-0.686c0.097,-0.26 0.147,-0.537 0.147,-0.82c0,-0.284 -0.05,-0.561 -0.147,-0.824c-0.097,-0.255 -0.234,-0.486 -0.409,-0.685Zm-2.477,-0.658c-0.121,0 -0.239,-0.027 -0.354,-0.083c-0.111,-0.053 -0.218,-0.135 -0.307,-0.236c-0.096,-0.108 -0.171,-0.235 -0.223,-0.375c-0.055,-0.15 -0.083,-0.308 -0.083,-0.473c0,-0.164 0.028,-0.322 0.084,-0.472c0.052,-0.14 0.127,-0.267 0.223,-0.375c0.09,-0.103 0.193,-0.183 0.308,-0.238c0.112,-0.054 0.231,-0.081 0.353,-0.081h0.032v2.333h-0.033Zm1.95,2.637c-0.054,0.143 -0.129,0.27 -0.224,0.377c-0.09,0.103 -0.193,0.183 -0.308,0.238c-0.112,0.054 -0.231,0.081 -0.353,0.081h-0.032v-2.333h0.033c0.121,0 0.239,0.027 0.354,0.083c0.111,0.053 0.218,0.135 0.307,0.236c0.095,0.107 0.17,0.234 0.223,0.375c0.055,0.15 0.083,0.308 0.083,0.473c0,0.164 -0.028,0.322 -0.083,0.47Z" transform="translate(15, 3)"></path>
        <path d="M18.664,4.187c-0.888,-0.623 -1.92,-0.662 -3.172,-0.112l-3.402,1.622l-2.361,-1.482l3.463,-1.825c0.139,-0.073 0.234,-0.207 0.26,-0.361c0.026,-0.154 -0.022,-0.312 -0.131,-0.426l-0.388,-0.408c-0.913,-0.961 -2.302,-1.195 -3.453,-0.585l-2.684,1.413c-0.048,-0.1 -0.123,-0.188 -0.231,-0.239l-2.429,-1.156c-0.122,-0.059 -0.263,-0.063 -0.388,-0.018c-0.127,0.047 -0.229,0.143 -0.284,0.266l-3.354,7.54c-0.11,0.248 -0.003,0.538 0.242,0.654l2.429,1.157c0.067,0.032 0.141,0.049 0.215,0.049c0.059,0 0.117,-0.011 0.173,-0.031c0.127,-0.047 0.229,-0.143 0.284,-0.266l0.312,-0.703h9.191c0.08,0 0.159,-0.02 0.23,-0.056l6.6,-3.42c0.158,-0.082 0.261,-0.242 0.269,-0.421c0.009,-0.178 -0.078,-0.348 -0.229,-0.443l-1.162,-0.749Zm-15.916,4.917l-1.525,-0.728l2.946,-6.626l1.525,0.727l-2.705,6.084c-0.006,0.013 -0.012,0.026 -0.018,0.04l-0.223,0.503Zm10.087,-0.828h-8.625l2.185,-4.913l3.551,-1.869c0.723,-0.384 1.592,-0.254 2.192,0.321l-4.822,2.541c-0.244,0.128 -0.339,0.431 -0.21,0.675c0.089,0.17 0.263,0.268 0.442,0.268c0.079,0 0.158,-0.019 0.232,-0.058l0.924,-0.487l3.085,1.936c0.145,0.091 0.325,0.1 0.48,0.027l3.637,-1.733c0.913,-0.402 1.587,-0.396 2.198,0.032l0.454,0.293l-5.723,2.967Z" transform="translate(-0.067, 13.724)"></path>
    </g>
</svg>