<?xml version="1.0" encoding="UTF-8"?>
<svg version="1.1" viewBox="0 0 24 24" xmlns="http://www.w3.org/2000/svg" xmlns:xlink="http://www.w3.org/1999/xlink">
    <!--Generated by IJSVG (https://github.com/curthard89/IJSVG)-->
    <g fill="#4079c1">
        <path d="M0.5,19.052c7.808,0 14.21,-6.245 14.477,-14h2.523c0.007,-0.001 0.013,-0.001 0.02,0c0.276,0 0.5,-0.224 0.5,-0.5c0,-0.158 -0.074,-0.299 -0.188,-0.391l-2.932,-3.909c-0.188,-0.252 -0.611,-0.252 -0.8,2.22045e-16l-3,4c-0.114,0.151 -0.132,0.354 -0.047,0.523c0.085,0.17 0.258,0.277 0.447,0.277h2.476c-0.265,7.203 -6.218,13 -13.476,13c-0.276,0 -0.5,0.224 -0.5,0.5c0,0.276 0.224,0.5 0.5,0.5Zm14,-17.667l2,2.667h-4l2,-2.667Z" transform="translate(0, -0.052)"></path>
        <path d="M3,6c1.654,0 3,-1.346 3,-3c0,-1.654 -1.346,-3 -3,-3c-1.654,0 -3,1.346 -3,3c0,1.654 1.346,3 3,3Zm0,-5c1.103,0 2,0.897 2,2c0,1.103 -0.897,2 -2,2c-1.103,0 -2,-0.897 -2,-2c0,-1.103 0.897,-2 2,-2Z" transform="translate(0, 8)"></path>
        <path d="M3,0c-1.654,0 -3,1.346 -3,3c0,1.654 1.346,3 3,3c1.654,0 3,-1.346 3,-3c0,-1.654 -1.346,-3 -3,-3Zm0,5c-1.103,0 -2,-0.897 -2,-2c0,-1.103 0.897,-2 2,-2c1.103,0 2,0.897 2,2c0,1.103 -0.897,2 -2,2Z" transform="translate(12, 18)"></path>
        <path d="M4.902,0.195c-0.195,-0.195 -0.512,-0.195 -0.707,0l-1.647,1.647l-1.646,-1.646c-0.195,-0.195 -0.512,-0.195 -0.707,0c-0.195,0.195 -0.195,0.512 0,0.707l1.646,1.646l-1.646,1.646c-0.195,0.195 -0.195,0.512 0,0.707c0.097,0.098 0.225,0.147 0.353,0.147c0.128,0 0.256,-0.049 0.354,-0.146l1.646,-1.646l1.646,1.646c0.098,0.097 0.226,0.146 0.354,0.146c0.128,0 0.256,-0.049 0.354,-0.146c0.195,-0.195 0.195,-0.512 0,-0.707l-1.647,-1.647l1.646,-1.646c0.196,-0.196 0.196,-0.512 0.001,-0.708Z" transform="translate(18.952, 8.951)"></path>
    </g>
</svg>