<?xml version="1.0" encoding="UTF-8"?>
<svg version="1.1" viewBox="0 0 24 24" xmlns="http://www.w3.org/2000/svg" xmlns:xlink="http://www.w3.org/1999/xlink">
    <!--Generated by IJSVG (https://github.com/curthard89/IJSVG)-->
    <g fill="#5B5B5B">
        <path d="M1.5,24h11c0.827,0 1.5,-0.673 1.5,-1.5v-21c0,-0.827 -0.673,-1.5 -1.5,-1.5h-11c-0.827,0 -1.5,0.673 -1.5,1.5v21c0,0.827 0.673,1.5 1.5,1.5Zm11.5,-5h-12v-14h12v14Zm-0.5,4h-11c-0.276,0 -0.5,-0.224 -0.5,-0.5v-2.5h12v2.5c0,0.276 -0.224,0.5 -0.5,0.5Zm-11,-22h11c0.276,0 0.5,0.224 0.5,0.5v2.5h-12v-2.5c0,-0.276 0.224,-0.5 0.5,-0.5Z" transform="translate(5, 0)"></path>
        <path d="M0.5,1h1c0.276,0 0.5,-0.224 0.5,-0.5c0,-0.276 -0.224,-0.5 -0.5,-0.5h-1c-0.276,0 -0.5,0.224 -0.5,0.5c0,0.276 0.224,0.5 0.5,0.5Z" transform="translate(11, 2)"></path>
        <path d="M1.5,0h-1c-0.276,0 -0.5,0.224 -0.5,0.5c0,0.276 0.224,0.5 0.5,0.5h1c0.276,0 0.5,-0.224 0.5,-0.5c0,-0.276 -0.224,-0.5 -0.5,-0.5Z" transform="translate(11, 21)"></path>
    </g>
</svg>