<?xml version="1.0" encoding="utf-8"?>
<!-- Generator: Adobe Illustrator 18.0.0, SVG Export Plug-In . SVG Version: 6.00 Build 0)  -->
<!DOCTYPE svg PUBLIC "-//W3C//DTD SVG 1.1//EN" "http://www.w3.org/Graphics/SVG/1.1/DTD/svg11.dtd" [
	<!ENTITY ns_extend "http://ns.adobe.com/Extensibility/1.0/">
	<!ENTITY ns_ai "http://ns.adobe.com/AdobeIllustrator/10.0/">
	<!ENTITY ns_graphs "http://ns.adobe.com/Graphs/1.0/">
	<!ENTITY ns_vars "http://ns.adobe.com/Variables/1.0/">
	<!ENTITY ns_imrep "http://ns.adobe.com/ImageReplacement/1.0/">
	<!ENTITY ns_sfw "http://ns.adobe.com/SaveForWeb/1.0/">
	<!ENTITY ns_custom "http://ns.adobe.com/GenericCustomNamespace/1.0/">
	<!ENTITY ns_adobe_xpath "http://ns.adobe.com/XPath/1.0/">
]>
<svg version="1.1" xmlns:x="&ns_extend;" xmlns:i="&ns_ai;" xmlns:graph="&ns_graphs;"
	 xmlns="http://www.w3.org/2000/svg" xmlns:xlink="http://www.w3.org/1999/xlink" x="0px" y="0px" viewBox="0 0 24 24"
	 enable-background="new 0 0 24 24" xml:space="preserve">
<metadata>
	<sfw  xmlns="&ns_sfw;">
		<slices></slices>
		<sliceSourceBounds  height="297.044" width="459.257" x="0" y="-287" bottomLeftOrigin="true"></sliceSourceBounds>
		<optimizationSettings>
			<targetSettings  fileFormat="PNG24Format" targetSettingsID="0">
				<PNG24Format  transparency="true" interlaced="false" filtered="false" noMatteColor="false" matteColor="#FFFFFF">
					</PNG24Format>
			</targetSettings>
		</optimizationSettings>
	</sfw>
</metadata>
<g id="icons">
	<path fill="#4079c1" d="M20.523,7.269c-0.082-0.158-0.242-0.26-0.42-0.268c-0.173-0.006-0.346,0.079-0.443,0.228l-0.748,1.155
		c-0.624,0.883-0.663,1.911-0.113,3.155l1.621,3.374l-1.479,2.34l-1.829-3.435c-0.073-0.138-0.207-0.233-0.36-0.259
		c-0.154-0.024-0.311,0.023-0.424,0.13l-0.41,0.387c-0.966,0.91-1.197,2.293-0.578,3.437L17,20.647V23.5c0,0.276,0.224,0.5,0.5,0.5
		h6c0.276,0,0.5-0.224,0.5-0.5v-9.449c0-0.081-0.02-0.16-0.057-0.231L20.523,7.269z M23,23h-5v-2.478c0,0,0-0.001,0-0.002
		c0,0,0-0.001,0-0.002c-0.001-0.086-0.023-0.167-0.063-0.238l-1.718-3.242c-0.388-0.717-0.259-1.579,0.318-2.173l1.881,3.523
		c0.002,0.004,0.004,0.01,0.007,0.016c0.009,0.03,0.021,0.059,0.037,0.086l0.614,1.163c0.129,0.244,0.434,0.337,0.676,0.208
		c0.244-0.129,0.338-0.432,0.209-0.676l-0.486-0.911l1.938-3.064c0.092-0.146,0.103-0.328,0.028-0.483l-1.734-3.609
		c-0.399-0.906-0.394-1.572,0.033-2.176l0.293-0.453L23,14.173V23z"/>
	<path fill="#4079c1" d="M1.5,24h6C7.776,24,8,23.776,8,23.5v-2.853l1.659-3.132c0.621-1.148,0.39-2.531-0.576-3.441l-0.41-0.387
		c-0.113-0.107-0.271-0.156-0.424-0.13c-0.153,0.025-0.287,0.121-0.36,0.259l-1.826,3.438L4.58,14.911l1.627-3.388
		c0.544-1.23,0.505-2.257-0.107-3.124L5.34,7.228C5.242,7.079,5.073,6.984,4.896,7c-0.178,0.008-0.338,0.11-0.42,0.268l-3.42,6.551
		C1.02,13.891,1,13.97,1,14.051V23.5C1,23.776,1.224,24,1.5,24z M2,14.173l2.967-5.683L5.271,8.96
		c0.415,0.587,0.421,1.253,0.027,2.145l-1.74,3.623c-0.074,0.155-0.063,0.338,0.028,0.483l1.936,3.061l-0.484,0.915
		c-0.129,0.244-0.035,0.547,0.209,0.676c0.241,0.129,0.546,0.036,0.676-0.208l0.585-1.115c0.025-0.036,0.046-0.075,0.061-0.116
		l1.895-3.557c0.576,0.594,0.705,1.456,0.315,2.177L7.063,20.28C7.022,20.352,7,20.435,7,20.522V23H2V14.173z"/>
	<path fill="#4079c1" d="M17.871,2.186c-0.027-0.032-0.047-0.07-0.083-0.095c-0.02-0.014-0.044-0.015-0.065-0.025
		c-0.015-0.008-0.022-0.024-0.037-0.03l-5-2c-0.119-0.048-0.252-0.048-0.371,0l-5,2c-0.016,0.006-0.023,0.023-0.037,0.03
		C7.256,2.077,7.232,2.078,7.212,2.091C7.177,2.116,7.156,2.154,7.129,2.186c-0.018,0.021-0.039,0.037-0.053,0.06
		C7.031,2.323,7,2.408,7,2.5v6.213c0,0.211,0.133,0.4,0.332,0.471l5,1.787C12.387,10.99,12.443,11,12.5,11s0.113-0.01,0.168-0.029
		l5-1.787C17.867,9.113,18,8.924,18,8.713V2.5c0-0.092-0.031-0.177-0.077-0.254C17.909,2.223,17.889,2.207,17.871,2.186z
		 M12.5,1.039l3.588,1.435L12.5,3.756L8.912,2.474L12.5,1.039z M8,3.209l4,1.43v5.151l-4-1.43V3.209z M17,8.361l-4,1.43V4.639
		l4-1.43V8.361z"/>
</g>
<g id="nyt_x5F_exporter_x5F_info" display="none">
	<text transform="matrix(1 0 0 1 -285 -131)" display="inline"><tspan x="0" y="0" font-family="'MyriadPro-Regular'" font-size="12">&lt;</tspan><tspan x="7.152" y="0" font-family="'MyriadPro-Regular'" font-size="12">n</tspan><tspan x="13.656" y="0" font-family="'MyriadPro-Regular'" font-size="12">yt_p</tspan><tspan x="36.107" y="0" font-family="'MyriadPro-Regular'" font-size="12">r</tspan><tspan x="39.912" y="0" font-family="'MyriadPro-Regular'" font-size="12">e</tspan><tspan x="45.924" y="0" font-family="'MyriadPro-Regular'" font-size="12">f</tspan><tspan x="49.32" y="0" font-family="'MyriadPro-Regular'" font-size="12">s&gt;</tspan><tspan x="0" y="14.4" font-family="'MyriadPro-Regular'" font-size="12">  &lt;</tspan><tspan x="12.24" y="14.4" font-family="'MyriadPro-Regular'" font-size="12">n</tspan><tspan x="18.744" y="14.4" font-family="'MyriadPro-Regular'" font-size="12">yt_p</tspan><tspan x="41.195" y="14.4" font-family="'MyriadPro-Regular'" font-size="12">r</tspan><tspan x="45" y="14.4" font-family="'MyriadPro-Regular'" font-size="12">efix&gt;&lt;/</tspan><tspan x="81.263" y="14.4" font-family="'MyriadPro-Regular'" font-size="12">n</tspan><tspan x="87.767" y="14.4" font-family="'MyriadPro-Regular'" font-size="12">yt_p</tspan><tspan x="110.219" y="14.4" font-family="'MyriadPro-Regular'" font-size="12">r</tspan><tspan x="114.022" y="14.4" font-family="'MyriadPro-Regular'" font-size="12">efix&gt;</tspan><tspan x="0" y="28.8" font-family="'MyriadPro-Regular'" font-size="12">  &lt;</tspan><tspan x="12.24" y="28.8" font-family="'MyriadPro-Regular'" font-size="12">n</tspan><tspan x="18.744" y="28.8" font-family="'MyriadPro-Regular'" font-size="12">yt_suffix&gt;&lt;/</tspan><tspan x="79.487" y="28.8" font-family="'MyriadPro-Regular'" font-size="12">n</tspan><tspan x="85.991" y="28.8" font-family="'MyriadPro-Regular'" font-size="12">yt_suffix&gt;</tspan><tspan x="0" y="43.2" font-family="'MyriadPro-Regular'" font-size="12">  &lt;</tspan><tspan x="12.24" y="43.2" font-family="'MyriadPro-Regular'" font-size="12">n</tspan><tspan x="18.744" y="43.2" font-family="'MyriadPro-Regular'" font-size="12">yt_base_p</tspan><tspan x="70.571" y="43.2" font-family="'MyriadPro-Regular'" font-size="12">a</tspan><tspan x="76.307" y="43.2" font-family="'MyriadPro-Regular'" font-size="12">th&gt;~/</tspan><tspan x="105.358" y="43.2" font-family="'MyriadPro-Regular'" font-size="12">D</tspan><tspan x="113.398" y="43.2" font-family="'MyriadPro-Regular'" font-size="12">esk</tspan><tspan x="129.79" y="43.2" font-family="'MyriadPro-Regular'" font-size="12">t</tspan><tspan x="133.69" y="43.2" font-family="'MyriadPro-Regular'" font-size="12">op/01%20Slimi</tspan><tspan x="209.721" y="43.2" font-family="'MyriadPro-Regular'" font-size="12">c</tspan><tspan x="215.024" y="43.2" font-family="'MyriadPro-Regular'" font-size="12">ons/</tspan><tspan x="237.141" y="43.2" font-family="'MyriadPro-Regular'" font-size="12">P</tspan><tspan x="243.332" y="43.2" font-family="'MyriadPro-Regular'" font-size="12">ng/G</tspan><tspan x="268.568" y="43.2" font-family="'MyriadPro-Regular'" font-size="12">r</tspan><tspan x="272.372" y="43.2" font-family="'MyriadPro-Regular'" font-size="12">ey/384</tspan><tspan x="306.619" y="43.2" font-family="'MyriadPro-Regular'" font-size="12">p</tspan><tspan x="313.279" y="43.2" font-family="'MyriadPro-Regular'" font-size="12">x/</tspan><tspan x="322.951" y="43.2" font-family="'MyriadPro-Regular'" font-size="12">L</tspan><tspan x="328.446" y="43.2" font-family="'MyriadPro-Regular'" font-size="12">o</tspan><tspan x="335.035" y="43.2" font-family="'MyriadPro-Regular'" font-size="12">g</tspan><tspan x="341.671" y="43.2" font-family="'MyriadPro-Regular'" font-size="12">istics&lt;/</tspan><tspan x="377.406" y="43.2" font-family="'MyriadPro-Regular'" font-size="12">n</tspan><tspan x="383.91" y="43.2" font-family="'MyriadPro-Regular'" font-size="12">yt_base_p</tspan><tspan x="435.737" y="43.2" font-family="'MyriadPro-Regular'" font-size="12">a</tspan><tspan x="441.474" y="43.2" font-family="'MyriadPro-Regular'" font-size="12">th&gt;</tspan><tspan x="0" y="57.6" font-family="'MyriadPro-Regular'" font-size="12">  &lt;</tspan><tspan x="12.24" y="57.6" font-family="'MyriadPro-Regular'" font-size="12">n</tspan><tspan x="18.744" y="57.6" font-family="'MyriadPro-Regular'" font-size="12">yt_scaling&gt;1600&lt;/</tspan><tspan x="112.33" y="57.6" font-family="'MyriadPro-Regular'" font-size="12">n</tspan><tspan x="118.834" y="57.6" font-family="'MyriadPro-Regular'" font-size="12">yt_scaling&gt;</tspan><tspan x="0" y="72" font-family="'MyriadPro-Regular'" font-size="12">  &lt;</tspan><tspan x="12.24" y="72" font-family="'MyriadPro-Regular'" font-size="12">n</tspan><tspan x="18.744" y="72" font-family="'MyriadPro-Regular'" font-size="12">yt_t</tspan><tspan x="38.339" y="72" font-family="'MyriadPro-Regular'" font-size="12">r</tspan><tspan x="42.204" y="72" font-family="'MyriadPro-Regular'" font-size="12">anspa</tspan><tspan x="72.011" y="72" font-family="'MyriadPro-Regular'" font-size="12">r</tspan><tspan x="75.815" y="72" font-family="'MyriadPro-Regular'" font-size="12">en</tspan><tspan x="88.487" y="72" font-family="'MyriadPro-Regular'" font-size="12">c</tspan><tspan x="94.079" y="72" font-family="'MyriadPro-Regular'" font-size="12">y&gt;true&lt;/</tspan><tspan x="138.67" y="72" font-family="'MyriadPro-Regular'" font-size="12">n</tspan><tspan x="145.174" y="72" font-family="'MyriadPro-Regular'" font-size="12">yt_t</tspan><tspan x="164.77" y="72" font-family="'MyriadPro-Regular'" font-size="12">r</tspan><tspan x="168.634" y="72" font-family="'MyriadPro-Regular'" font-size="12">anspa</tspan><tspan x="198.441" y="72" font-family="'MyriadPro-Regular'" font-size="12">r</tspan><tspan x="202.246" y="72" font-family="'MyriadPro-Regular'" font-size="12">en</tspan><tspan x="214.918" y="72" font-family="'MyriadPro-Regular'" font-size="12">c</tspan><tspan x="220.51" y="72" font-family="'MyriadPro-Regular'" font-size="12">y&gt;</tspan><tspan x="0" y="86.4" font-family="'MyriadPro-Regular'" font-size="12">  &lt;</tspan><tspan x="12.24" y="86.4" font-family="'MyriadPro-Regular'" font-size="12">n</tspan><tspan x="18.744" y="86.4" font-family="'MyriadPro-Regular'" font-size="12">yt_embed</tspan><tspan x="69.995" y="86.4" font-family="'MyriadPro-Regular'" font-size="12">I</tspan><tspan x="72.983" y="86.4" font-family="'MyriadPro-Regular'" font-size="12">mage&gt;true&lt;/</tspan><tspan x="140.434" y="86.4" font-family="'MyriadPro-Regular'" font-size="12">n</tspan><tspan x="146.938" y="86.4" font-family="'MyriadPro-Regular'" font-size="12">yt_embed</tspan><tspan x="198.189" y="86.4" font-family="'MyriadPro-Regular'" font-size="12">I</tspan><tspan x="201.178" y="86.4" font-family="'MyriadPro-Regular'" font-size="12">mage&gt;</tspan><tspan x="0" y="100.8" font-family="'MyriadPro-Regular'" font-size="12">  &lt;</tspan><tspan x="12.24" y="100.8" font-family="'MyriadPro-Regular'" font-size="12">n</tspan><tspan x="18.744" y="100.8" font-family="'MyriadPro-Regular'" font-size="12">yt_embed</tspan><tspan x="69.995" y="100.8" font-family="'MyriadPro-Regular'" font-size="12">F</tspan><tspan x="75.467" y="100.8" font-family="'MyriadPro-Regular'" font-size="12">o</tspan><tspan x="82.055" y="100.8" font-family="'MyriadPro-Regular'" font-size="12">n</tspan><tspan x="88.667" y="100.8" font-family="'MyriadPro-Regular'" font-size="12">t&gt;true&lt;/</tspan><tspan x="131.579" y="100.8" font-family="'MyriadPro-Regular'" font-size="12">n</tspan><tspan x="138.083" y="100.8" font-family="'MyriadPro-Regular'" font-size="12">yt_embed</tspan><tspan x="189.334" y="100.8" font-family="'MyriadPro-Regular'" font-size="12">F</tspan><tspan x="194.806" y="100.8" font-family="'MyriadPro-Regular'" font-size="12">o</tspan><tspan x="201.395" y="100.8" font-family="'MyriadPro-Regular'" font-size="12">n</tspan><tspan x="208.006" y="100.8" font-family="'MyriadPro-Regular'" font-size="12">t&gt;</tspan><tspan x="0" y="115.2" font-family="'MyriadPro-Regular'" font-size="12">  &lt;</tspan><tspan x="12.24" y="115.2" font-family="'MyriadPro-Regular'" font-size="12">n</tspan><tspan x="18.744" y="115.2" font-family="'MyriadPro-Regular'" font-size="12">yt_t</tspan><tspan x="38.339" y="115.2" font-family="'MyriadPro-Regular'" font-size="12">r</tspan><tspan x="42.312" y="115.2" font-family="'MyriadPro-Regular'" font-size="12">im</tspan><tspan x="55.127" y="115.2" font-family="'MyriadPro-Regular'" font-size="12">E</tspan><tspan x="60.983" y="115.2" font-family="'MyriadPro-Regular'" font-size="12">dges&gt;false&lt;/</tspan><tspan x="126.526" y="115.2" font-family="'MyriadPro-Regular'" font-size="12">n</tspan><tspan x="133.03" y="115.2" font-family="'MyriadPro-Regular'" font-size="12">yt_t</tspan><tspan x="152.626" y="115.2" font-family="'MyriadPro-Regular'" font-size="12">r</tspan><tspan x="156.598" y="115.2" font-family="'MyriadPro-Regular'" font-size="12">im</tspan><tspan x="169.414" y="115.2" font-family="'MyriadPro-Regular'" font-size="12">E</tspan><tspan x="175.27" y="115.2" font-family="'MyriadPro-Regular'" font-size="12">dges&gt;</tspan><tspan x="0" y="129.6" font-family="'MyriadPro-Regular'" font-size="12">  &lt;</tspan><tspan x="12.24" y="129.6" font-family="'MyriadPro-Regular'" font-size="12">n</tspan><tspan x="18.744" y="129.6" font-family="'MyriadPro-Regular'" font-size="12">yt_inner</tspan><tspan x="60.431" y="129.6" font-family="'MyriadPro-Regular'" font-size="12">P</tspan><tspan x="66.503" y="129.6" font-family="'MyriadPro-Regular'" font-size="12">adding&gt;false&lt;/</tspan><tspan x="143.302" y="129.6" font-family="'MyriadPro-Regular'" font-size="12">n</tspan><tspan x="149.806" y="129.6" font-family="'MyriadPro-Regular'" font-size="12">yt_inner</tspan><tspan x="191.494" y="129.6" font-family="'MyriadPro-Regular'" font-size="12">P</tspan><tspan x="197.565" y="129.6" font-family="'MyriadPro-Regular'" font-size="12">adding&gt;</tspan><tspan x="0" y="144" font-family="'MyriadPro-Regular'" font-size="12">  &lt;</tspan><tspan x="12.24" y="144" font-family="'MyriadPro-Regular'" font-size="12">n</tspan><tspan x="18.744" y="144" font-family="'MyriadPro-Regular'" font-size="12">yt_</tspan><tspan x="34.368" y="144" font-family="'MyriadPro-Regular'" font-size="12">f</tspan><tspan x="37.716" y="144" font-family="'MyriadPro-Regular'" font-size="12">o</tspan><tspan x="44.304" y="144" font-family="'MyriadPro-Regular'" font-size="12">r</tspan><tspan x="48.275" y="144" font-family="'MyriadPro-Regular'" font-size="12">m</tspan><tspan x="58.284" y="144" font-family="'MyriadPro-Regular'" font-size="12">a</tspan><tspan x="64.02" y="144" font-family="'MyriadPro-Regular'" font-size="12">t&gt;PNG 24&lt;/</tspan><tspan x="123.298" y="144" font-family="'MyriadPro-Regular'" font-size="12">n</tspan><tspan x="129.803" y="144" font-family="'MyriadPro-Regular'" font-size="12">yt_</tspan><tspan x="145.426" y="144" font-family="'MyriadPro-Regular'" font-size="12">f</tspan><tspan x="148.774" y="144" font-family="'MyriadPro-Regular'" font-size="12">o</tspan><tspan x="155.362" y="144" font-family="'MyriadPro-Regular'" font-size="12">r</tspan><tspan x="159.334" y="144" font-family="'MyriadPro-Regular'" font-size="12">m</tspan><tspan x="169.342" y="144" font-family="'MyriadPro-Regular'" font-size="12">a</tspan><tspan x="175.078" y="144" font-family="'MyriadPro-Regular'" font-size="12">t&gt;</tspan><tspan x="0" y="158.4" font-family="'MyriadPro-Regular'" font-size="12">  &lt;</tspan><tspan x="12.24" y="158.4" font-family="'MyriadPro-Regular'" font-size="12">n</tspan><tspan x="18.744" y="158.4" font-family="'MyriadPro-Regular'" font-size="12">yt_a</tspan><tspan x="40.151" y="158.4" font-family="'MyriadPro-Regular'" font-size="12">r</tspan><tspan x="44.363" y="158.4" font-family="'MyriadPro-Regular'" font-size="12">tboa</tspan><tspan x="67.535" y="158.4" font-family="'MyriadPro-Regular'" font-size="12">r</tspan><tspan x="71.339" y="158.4" font-family="'MyriadPro-Regular'" font-size="12">ds&gt;all&lt;/</tspan><tspan x="112.727" y="158.4" font-family="'MyriadPro-Regular'" font-size="12">n</tspan><tspan x="119.23" y="158.4" font-family="'MyriadPro-Regular'" font-size="12">yt_a</tspan><tspan x="140.638" y="158.4" font-family="'MyriadPro-Regular'" font-size="12">r</tspan><tspan x="144.85" y="158.4" font-family="'MyriadPro-Regular'" font-size="12">tboa</tspan><tspan x="168.021" y="158.4" font-family="'MyriadPro-Regular'" font-size="12">r</tspan><tspan x="171.826" y="158.4" font-family="'MyriadPro-Regular'" font-size="12">ds&gt;</tspan><tspan x="0" y="172.8" font-family="'MyriadPro-Regular'" font-size="12">  &lt;</tspan><tspan x="12.24" y="172.8" font-family="'MyriadPro-Regular'" font-size="12">n</tspan><tspan x="18.744" y="172.8" font-family="'MyriadPro-Regular'" font-size="12">yt_l</tspan><tspan x="37.2" y="172.8" font-family="'MyriadPro-Regular'" font-size="12">a</tspan><tspan x="42.888" y="172.8" font-family="'MyriadPro-Regular'" font-size="12">y</tspan><tspan x="48.419" y="172.8" font-family="'MyriadPro-Regular'" font-size="12">ers&gt;none&lt;/</tspan><tspan x="107.447" y="172.8" font-family="'MyriadPro-Regular'" font-size="12">n</tspan><tspan x="113.951" y="172.8" font-family="'MyriadPro-Regular'" font-size="12">yt_l</tspan><tspan x="132.406" y="172.8" font-family="'MyriadPro-Regular'" font-size="12">a</tspan><tspan x="138.095" y="172.8" font-family="'MyriadPro-Regular'" font-size="12">y</tspan><tspan x="143.626" y="172.8" font-family="'MyriadPro-Regular'" font-size="12">ers&gt;</tspan><tspan x="0" y="187.2" font-family="'MyriadPro-Regular'" font-size="12">  &lt;</tspan><tspan x="12.24" y="187.2" font-family="'MyriadPro-Regular'" font-size="12">n</tspan><tspan x="18.744" y="187.2" font-family="'MyriadPro-Regular'" font-size="12">yt_</tspan><tspan x="34.368" y="187.2" font-family="'MyriadPro-Regular'" font-size="12">e</tspan><tspan x="40.344" y="187.2" font-family="'MyriadPro-Regular'" font-size="12">xpo</tspan><tspan x="59.315" y="187.2" font-family="'MyriadPro-Regular'" font-size="12">r</tspan><tspan x="63.527" y="187.2" font-family="'MyriadPro-Regular'" font-size="12">t</tspan><tspan x="67.499" y="187.2" font-family="'MyriadPro-Regular'" font-size="12">A</tspan><tspan x="74.807" y="187.2" font-family="'MyriadPro-Regular'" font-size="12">r</tspan><tspan x="79.019" y="187.2" font-family="'MyriadPro-Regular'" font-size="12">tboa</tspan><tspan x="102.19" y="187.2" font-family="'MyriadPro-Regular'" font-size="12">r</tspan><tspan x="105.995" y="187.2" font-family="'MyriadPro-Regular'" font-size="12">ds&gt;true&lt;/</tspan><tspan x="156.454" y="187.2" font-family="'MyriadPro-Regular'" font-size="12">n</tspan><tspan x="162.958" y="187.2" font-family="'MyriadPro-Regular'" font-size="12">yt_</tspan><tspan x="178.582" y="187.2" font-family="'MyriadPro-Regular'" font-size="12">e</tspan><tspan x="184.558" y="187.2" font-family="'MyriadPro-Regular'" font-size="12">xpo</tspan><tspan x="203.529" y="187.2" font-family="'MyriadPro-Regular'" font-size="12">r</tspan><tspan x="207.741" y="187.2" font-family="'MyriadPro-Regular'" font-size="12">t</tspan><tspan x="211.713" y="187.2" font-family="'MyriadPro-Regular'" font-size="12">A</tspan><tspan x="219.021" y="187.2" font-family="'MyriadPro-Regular'" font-size="12">r</tspan><tspan x="223.233" y="187.2" font-family="'MyriadPro-Regular'" font-size="12">tboa</tspan><tspan x="246.405" y="187.2" font-family="'MyriadPro-Regular'" font-size="12">r</tspan><tspan x="250.209" y="187.2" font-family="'MyriadPro-Regular'" font-size="12">ds&gt;</tspan><tspan x="0" y="201.6" font-family="'MyriadPro-Regular'" font-size="12">  &lt;</tspan><tspan x="12.24" y="201.6" font-family="'MyriadPro-Regular'" font-size="12">n</tspan><tspan x="18.744" y="201.6" font-family="'MyriadPro-Regular'" font-size="12">yt_i</tspan><tspan x="37.176" y="201.6" font-family="'MyriadPro-Regular'" font-size="12">g</tspan><tspan x="43.812" y="201.6" font-family="'MyriadPro-Regular'" font-size="12">no</tspan><tspan x="57.06" y="201.6" font-family="'MyriadPro-Regular'" font-size="12">r</tspan><tspan x="60.863" y="201.6" font-family="'MyriadPro-Regular'" font-size="12">e</tspan><tspan x="66.875" y="201.6" font-family="'MyriadPro-Regular'" font-size="12">W</tspan><tspan x="76.631" y="201.6" font-family="'MyriadPro-Regular'" font-size="12">a</tspan><tspan x="82.415" y="201.6" font-family="'MyriadPro-Regular'" font-size="12">r</tspan><tspan x="86.387" y="201.6" font-family="'MyriadPro-Regular'" font-size="12">nings&gt;true&lt;/</tspan><tspan x="152.914" y="201.6" font-family="'MyriadPro-Regular'" font-size="12">n</tspan><tspan x="159.418" y="201.6" font-family="'MyriadPro-Regular'" font-size="12">yt_i</tspan><tspan x="177.85" y="201.6" font-family="'MyriadPro-Regular'" font-size="12">g</tspan><tspan x="184.486" y="201.6" font-family="'MyriadPro-Regular'" font-size="12">no</tspan><tspan x="197.733" y="201.6" font-family="'MyriadPro-Regular'" font-size="12">r</tspan><tspan x="201.538" y="201.6" font-family="'MyriadPro-Regular'" font-size="12">e</tspan><tspan x="207.55" y="201.6" font-family="'MyriadPro-Regular'" font-size="12">W</tspan><tspan x="217.306" y="201.6" font-family="'MyriadPro-Regular'" font-size="12">a</tspan><tspan x="223.09" y="201.6" font-family="'MyriadPro-Regular'" font-size="12">r</tspan><tspan x="227.062" y="201.6" font-family="'MyriadPro-Regular'" font-size="12">nings&gt;</tspan><tspan x="0" y="216" font-family="'MyriadPro-Regular'" font-size="12">&lt;/</tspan><tspan x="11.268" y="216" font-family="'MyriadPro-Regular'" font-size="12">n</tspan><tspan x="17.772" y="216" font-family="'MyriadPro-Regular'" font-size="12">yt_p</tspan><tspan x="40.224" y="216" font-family="'MyriadPro-Regular'" font-size="12">r</tspan><tspan x="44.027" y="216" font-family="'MyriadPro-Regular'" font-size="12">e</tspan><tspan x="50.04" y="216" font-family="'MyriadPro-Regular'" font-size="12">f</tspan><tspan x="53.436" y="216" font-family="'MyriadPro-Regular'" font-size="12">s&gt;</tspan></text>
</g>
</svg>
