<?xml version="1.0" encoding="UTF-8"?>
<svg version="1.1" viewBox="0 0 24 24" xmlns="http://www.w3.org/2000/svg" xmlns:xlink="http://www.w3.org/1999/xlink">
    <!--Generated by IJSVG (https://github.com/curthard89/IJSVG)-->
    <defs>
        <path id="path-1" d="M0.5,1h9c0.276,0 0.5,-0.224 0.5,-0.5c0,-0.276 -0.224,-0.5 -0.5,-0.5h-9c-0.276,0 -0.5,0.224 -0.5,0.5c0,0.276 0.224,0.5 0.5,0.5Z"></path>
    </defs>
    <g fill="#5B5B5B">
        <path d="M23.5,0h-23c-0.276,0 -0.5,0.224 -0.5,0.5v15c0,0.276 0.224,0.5 0.5,0.5h23c0.276,0 0.5,-0.224 0.5,-0.5v-15c0,-0.276 -0.224,-0.5 -0.5,-0.5Zm-0.5,15h-22v-14h22v14Z" transform="translate(0, 4)"></path>
        <path d="M0.5,6h5c0.276,0 0.5,-0.224 0.5,-0.5v-5c0,-0.276 -0.224,-0.5 -0.5,-0.5h-5c-0.276,0 -0.5,0.224 -0.5,0.5v5c0,0.276 0.224,0.5 0.5,0.5Zm0.5,-5h4v4h-4v-4Z" transform="translate(15, 7)"></path>
        <use transform="translate(3, 16)" xlink:href="#path-1"></use>
        <use transform="translate(3, 14)" xlink:href="#path-1"></use>
        <use transform="translate(3, 12)" xlink:href="#path-1"></use>
        <use transform="translate(3, 10)" xlink:href="#path-1"></use>
    </g>
</svg>