<?xml version="1.0" encoding="UTF-8"?>
<svg version="1.1" viewBox="0 0 24 24" xmlns="http://www.w3.org/2000/svg" xmlns:xlink="http://www.w3.org/1999/xlink">
    <!--Generated by IJSVG (https://github.com/curthard89/IJSVG)-->
    <g fill="#4079c1">
        <path d="M5,0c-2.757,0 -5,2.243 -5,5c0,0.276 0.224,0.5 0.5,0.5c0.276,0 0.5,-0.224 0.5,-0.5c0,-2.206 1.794,-4 4,-4c0.276,0 0.5,-0.224 0.5,-0.5c0,-0.276 -0.224,-0.5 -0.5,-0.5Z" transform="translate(3, 2)"></path>
        <path d="M17.721,1.39c-1.888,-0.701 -4.031,-0.399 -5.695,0.749c-1.274,-1.316 -3.055,-2.139 -5.026,-2.139c-3.859,0 -7,3.141 -7,7c0,3.529 2.506,8.722 5.796,9.791l-0.743,1.485c-0.077,0.155 -0.069,0.339 0.021,0.486c0.092,0.148 0.253,0.238 0.426,0.238h1.121c-0.269,0.226 -0.621,0.558 -0.621,1.165c0,0.651 0.409,0.992 0.68,1.218c0.242,0.202 0.32,0.281 0.32,0.449c0,0.169 -0.078,0.248 -0.32,0.45c-0.271,0.226 -0.68,0.567 -0.68,1.218c0,0.276 0.224,0.5 0.5,0.5c0.276,0 0.5,-0.224 0.5,-0.5c0,-0.169 0.078,-0.248 0.32,-0.45c0.271,-0.226 0.68,-0.567 0.68,-1.218c0,-0.65 -0.409,-0.991 -0.68,-1.217c-0.242,-0.202 -0.32,-0.281 -0.32,-0.45c0,-0.168 0.078,-0.247 0.32,-0.449c0.19,-0.157 0.44,-0.379 0.578,-0.716h0.602c0.008,0.001 0.016,0.001 0.02,0c0.276,0 0.5,-0.224 0.5,-0.5c0,-0.129 -0.048,-0.246 -0.128,-0.334l-0.687,-1.375c0.866,-0.281 1.676,-0.846 2.402,-1.595c0.277,0.401 0.584,0.731 0.916,0.998l-1.118,1.075c-0.125,0.12 -0.179,0.297 -0.142,0.466c0.036,0.17 0.158,0.309 0.321,0.366l0.399,0.141c-0.041,0.077 -0.084,0.15 -0.113,0.248c-0.159,0.548 0.039,0.944 0.184,1.233c0.127,0.253 0.164,0.349 0.117,0.507c-0.036,0.126 -0.074,0.15 -0.295,0.246c-0.256,0.112 -0.685,0.299 -0.855,0.884c-0.077,0.265 0.075,0.542 0.341,0.62c0.044,0.013 0.092,0.02 0.138,0.02c0.217,0 0.416,-0.142 0.48,-0.36c0.036,-0.126 0.074,-0.15 0.295,-0.246c0.256,-0.112 0.685,-0.299 0.855,-0.884c0.159,-0.548 -0.039,-0.944 -0.184,-1.233c-0.127,-0.253 -0.164,-0.349 -0.118,-0.504c0.026,-0.088 0.057,-0.129 0.144,-0.18l1.44,0.509c0.055,0.019 0.111,0.028 0.167,0.028c0.112,0 0.224,-0.038 0.313,-0.11c0.135,-0.109 0.204,-0.279 0.183,-0.452l-0.198,-1.578c3.034,-0.108 6.698,-3.883 7.754,-7.023c1.178,-3.491 -0.577,-7.339 -3.91,-8.577Zm-10.534,15.602l0.503,1.008h-1.38l0.504,-1.008c0.034,0.003 0.071,-0.001 0.105,0c0.027,0.001 0.054,0.008 0.081,0.008c0.027,0 0.054,-0.007 0.081,-0.008c0.036,-0.001 0.069,0.003 0.106,0Zm0.083,-1.021c-0.192,0.023 -0.375,0.026 -0.65,-0.012c-3.034,-0.419 -5.62,-5.704 -5.62,-8.959c0,-3.309 2.691,-6 6,-6c1.839,0 3.486,0.833 4.587,2.14c0.211,0.25 0.396,0.517 0.562,0.795c0.017,0.029 0.036,0.057 0.053,0.086c0.159,0.277 0.294,0.567 0.407,0.865c0.013,0.034 0.026,0.069 0.038,0.104c0.107,0.299 0.191,0.607 0.25,0.92c0.007,0.037 0.011,0.074 0.017,0.111c0.053,0.322 0.086,0.649 0.086,0.979c0,0.244 -0.019,0.501 -0.046,0.762c-0.012,0.111 -0.029,0.226 -0.046,0.34c-0.02,0.143 -0.044,0.288 -0.072,0.435c-0.029,0.152 -0.06,0.304 -0.096,0.459c-0.023,0.096 -0.049,0.194 -0.075,0.291c-0.174,0.66 -0.407,1.336 -0.698,1.995c-0.01,0.024 -0.02,0.048 -0.03,0.071c-0.092,0.206 -0.191,0.408 -0.293,0.608c-0.033,0.065 -0.066,0.13 -0.1,0.194c-0.099,0.187 -0.201,0.371 -0.308,0.551c-0.042,0.07 -0.085,0.138 -0.128,0.206c-0.109,0.174 -0.218,0.348 -0.333,0.513c-0.033,0.046 -0.067,0.088 -0.1,0.134c-0.964,1.329 -2.148,2.288 -3.405,2.412Zm4.411,1.458l0.719,-0.691c0.034,0.016 0.069,0.03 0.104,0.043c0.002,0.001 0.003,0.002 0.005,0.002c0.003,0.001 0.005,0.001 0.008,0.002c0.109,0.041 0.224,0.076 0.342,0.105l0.125,0.998l-1.303,-0.459Zm9.005,-7.781c-0.962,2.86 -4.354,6.352 -6.941,6.352c-0.135,0 -0.266,-0.014 -0.396,-0.033c-0.171,-0.025 -0.327,-0.063 -0.473,-0.115c-0.007,-0.002 -0.014,-0.003 -0.02,-0.005c-0.001,0 -0.001,-0.001 -0.002,-0.001c-0.047,-0.018 -0.091,-0.044 -0.136,-0.068l-0.102,-0.054c-0.005,-0.003 -0.025,-0.01 -0.039,-0.015c-0.483,-0.254 -0.919,-0.677 -1.295,-1.281c0.019,-0.025 0.037,-0.054 0.056,-0.08c1.206,-1.572 2.086,-3.613 2.458,-5.496c0.001,-0.003 0.001,-0.006 0.002,-0.009c0.057,-0.287 0.102,-0.57 0.134,-0.847c0.005,-0.043 0.013,-0.087 0.017,-0.13c0.032,-0.297 0.051,-0.587 0.051,-0.866c0,-0.338 -0.032,-0.668 -0.079,-0.994c-0.009,-0.063 -0.018,-0.125 -0.029,-0.187c-0.057,-0.331 -0.132,-0.655 -0.234,-0.969c-0.003,-0.011 -0.008,-0.021 -0.012,-0.032c-0.104,-0.316 -0.233,-0.621 -0.379,-0.915c-0.018,-0.036 -0.034,-0.073 -0.052,-0.109c-0.152,-0.293 -0.323,-0.573 -0.513,-0.84c-0.013,-0.019 -0.023,-0.04 -0.036,-0.059c1.388,-0.924 3.149,-1.149 4.707,-0.568c2.831,1.052 4.317,4.336 3.313,7.321Z" transform="translate(1, 0)"></path>
    </g>
</svg>