<?xml version="1.0" encoding="UTF-8"?>
<svg version="1.1" viewBox="0 0 24 24" xmlns="http://www.w3.org/2000/svg" xmlns:xlink="http://www.w3.org/1999/xlink">
    <!--Generated by IJSVG (https://github.com/curthard89/IJSVG)-->
    <g fill="#5B5B5B">
        <path d="M9.854,0.146c-0.094,-0.093 -0.221,-0.146 -0.354,-0.146h-9c-0.276,0 -0.5,0.224 -0.5,0.5v9c0,0.133 0.053,0.26 0.146,0.354l14,14c0.098,0.097 0.226,0.146 0.354,0.146c0.128,0 0.256,-0.049 0.354,-0.146l9,-9c0.195,-0.195 0.195,-0.512 0,-0.707l-14,-14.001Zm4.646,22.647l-13.5,-13.5v-8.293h8.293l13.5,13.5l-8.293,8.293Z"></path>
        <path d="M2,0c-1.103,0 -2,0.897 -2,2c0,1.103 0.897,2 2,2c1.103,0 2,-0.897 2,-2c0,-1.103 -0.897,-2 -2,-2Zm0,3c-0.552,0 -1,-0.448 -1,-1c0,-0.552 0.448,-1 1,-1c0.552,0 1,0.448 1,1c0,0.552 -0.448,1 -1,1Z" transform="translate(2, 2)"></path>
    </g>
</svg>