<?xml version="1.0" encoding="UTF-8"?>
<svg version="1.1" viewBox="0 0 24 24" xmlns="http://www.w3.org/2000/svg" xmlns:xlink="http://www.w3.org/1999/xlink">
    <!--Generated by IJSVG (https://github.com/curthard89/IJSVG)-->
    <path fill="#5B5B5B" d="M9.5,19c2.132,0 4.151,-0.703 5.806,-1.987l6.84,6.84c0.098,0.098 0.226,0.147 0.354,0.147c0.128,0 0.256,-0.049 0.354,-0.146c0.195,-0.195 0.195,-0.512 0,-0.707l-6.787,-6.787c0.05,-0.048 0.104,-0.09 0.154,-0.139c1.792,-1.794 2.779,-4.18 2.779,-6.721c0,-5.238 -4.262,-9.5 -9.5,-9.5c-5.238,0 -9.5,4.262 -9.5,9.5c0,5.238 4.262,9.5 9.5,9.5Zm0,-18c4.687,0 8.5,3.813 8.5,8.5c0,2.273 -0.883,4.409 -2.487,6.013c-1.604,1.604 -3.74,2.487 -6.013,2.487c-4.687,0 -8.5,-3.813 -8.5,-8.5c0,-4.687 3.813,-8.5 8.5,-8.5Z"></path>
</svg>